<svg viewBox="0 0 100 100" xmlns="http://www.w3.org/2000/svg">
  <defs>
    <linearGradient id="armorGrad2" x1="0%" y1="0%" x2="0%" y2="100%">
      <stop offset="0%" style="stop-color:#a9a9a9;stop-opacity:1" />
      <stop offset="50%" style="stop-color:#696969;stop-opacity:1" />
      <stop offset="100%" style="stop-color:#404040;stop-opacity:1" />
    </linearGradient>
  </defs>
  
  <!-- Cota de malla -->
  <ellipse cx="50" cy="50" rx="40" ry="45" fill="url(#armorGrad2)" stroke="#1a1a1a" stroke-width="1.5"/>
  
  <!-- Cuello -->
  <ellipse cx="50" cy="15" rx="18" ry="12" fill="url(#armorGrad2)" stroke="#1a1a1a" stroke-width="1"/>
  
  <!-- Patrón de malla (entrecruzado) -->
  <g stroke="#1a1a1a" stroke-width="0.3" opacity="0.6">
    <line x1="20" y1="30" x2="80" y2="30"/>
    <line x1="20" y1="40" x2="80" y2="40"/>
    <line x1="20" y1="50" x2="80" y2="50"/>
    <line x1="20" y1="60" x2="80" y2="60"/>
    <line x1="20" y1="70" x2="80" y2="70"/>
    <line x1="20" y1="80" x2="80" y2="80"/>
    
    <line x1="25" y1="20" x2="55" y2="90"/>
    <line x1="35" y1="20" x2="65" y2="90"/>
    <line x1="45" y1="20" x2="75" y2="90"/>
    <line x1="55" y1="20" x2="85" y2="90"/>
  </g>
  
  <!-- Reflejos de metal -->
  <ellipse cx="35" cy="35" rx="8" ry="6" fill="#ffffff" opacity="0.3"/>
  <ellipse cx="65" cy="60" rx="6" ry="4" fill="#ffffff" opacity="0.2"/>
  
  <!-- Refuerzo central -->
  <rect x="48" y="20" width="4" height="65" fill="#5d4a37" stroke="#3d2817" stroke-width="0.5" opacity="0.7"/>
  
  <!-- Abertura de brazos -->
  <ellipse cx="25" cy="45" rx="8" ry="15" fill="#000000" opacity="0.3"/>
  <ellipse cx="75" cy="45" rx="8" ry="15" fill="#000000" opacity="0.3"/>
</svg>
